<svg xmlns="http://www.w3.org/2000/svg" width="19" height="18" viewBox="0 0 19 18" fill="none">
<g id="xendit_icon_blue_red">
<mask id="mask0" style="mask-type:alpha" maskUnits="userSpaceOnUse" x="0" y="0" width="19" height="18">
<rect id="Mask" width="18.4282" height="18" fill="white"/>
</mask>
<g mask="url(#mask0)">
<g id="xendit_icon_blue_red_2">
<path id="Fill-1_1_" d="M10.7805 13.3173L12.4743 16.1788L13.2927 15.6838L13.58 14.7362L11.7615 11.6603L10.7805 13.3173Z" fill="#D24D57"/>
<path id="Fill-2_1_" d="M5.29799 1.98533L4.49854 2.66298L6.64488 6.28681L7.6232 4.63239L5.66385 1.32092L5.29799 1.98533Z" fill="#D24D57"/>
<path id="Fill-3_1_" d="M7.14093 10.8423L4.7561 14.8738L5.05421 15.9459L5.78592 16.4515L9.22495 10.6359L10.206 8.97617L14.0109 2.53323L13.3794 1.67558L13.1653 1.37646L12.2385 2.21558L7.14093 10.8423Z" fill="#D24D57"/>
<path id="Fill-4_1_" d="M5.22213 0.569092L4.2411 2.23144H4.24381L1.23567 7.32968L1.23296 7.32703L0.254639 8.98674L5.22213 17.4044L6.20316 15.7473L2.21399 8.98939L6.20316 2.23144H9.05682L10.0379 0.569092H5.22213Z" fill="#4573FF"/>
<path id="Fill-5_1_" d="M12.2275 2.23409L16.2139 8.98939L12.2275 15.7447H9.37383L8.39551 17.4044H13.2085L14.1896 15.7447L17.195 10.6491L18.176 8.99203L17.1977 7.32174L14.1868 2.23144L13.2112 0.569092L12.2275 2.23409Z" fill="#4573FF"/>
</g>
</g>
</g>
</svg>